<svg width="14" height="17" viewBox="0 0 14 17" fill="none" xmlns="http://www.w3.org/2000/svg">
<g opacity="0.299219">
<path fill-rule="evenodd" clip-rule="evenodd" d="M6.91558 0.375122C8.47498 0.375122 9.98902 0.901682 11.1828 1.85792V1.85788C12.7422 3.10624 13.6594 4.88124 13.7703 6.85468C13.8765 8.80304 13.1484 10.7093 11.7734 12.0843L7.21542 16.5827C7.03886 16.7577 6.73263 16.7561 6.55606 16.5811L2.06246 12.0875C0.684342 10.7094 -0.0453501 8.8016 0.0624619 6.85472C0.171822 4.88136 1.09058 3.10636 2.64838 1.85792C3.84058 0.901682 5.35622 0.375122 6.91558 0.375122ZM3.8531 7.23464C3.8531 8.92368 5.2265 10.2971 6.91558 10.2971C8.60462 10.2971 9.97962 8.92372 9.97806 7.23464C9.97806 5.5456 8.60466 4.17216 6.91558 4.17216C5.22654 4.17216 3.8531 5.54556 3.8531 7.23464Z" fill="white"/>
<path d="M6.91557 5.74194C6.09213 5.74194 5.42337 6.4107 5.42337 7.23414C5.42337 8.05758 6.09213 8.72634 6.91557 8.72634C7.73901 8.72634 8.40777 8.05758 8.40777 7.23414C8.40777 6.4107 7.73901 5.74194 6.91557 5.74194Z" fill="white"/>
</g>
</svg>
