<svg width="59" height="47" viewBox="0 0 59 47" fill="none" xmlns="http://www.w3.org/2000/svg">
<path fill-rule="evenodd" clip-rule="evenodd" d="M58.5976 42.8611C58.5882 42.8896 58.5764 42.9181 58.5623 42.9442L58.5628 42.9438C58.5487 42.9723 58.5345 42.9984 58.5063 43.0174C58.4954 43.0348 58.4844 43.05 58.4734 43.0653C58.4679 43.073 58.4624 43.0806 58.4569 43.0886C58.4381 43.1123 58.417 43.1384 58.3958 43.1621C58.377 43.1811 58.3582 43.2001 58.337 43.2191C58.3135 43.2428 58.2876 43.2642 58.2618 43.2832C58.2509 43.2904 58.2389 43.2983 58.2266 43.3062C58.2148 43.3137 58.2027 43.3213 58.1912 43.3282C58.1842 43.3318 58.1773 43.3355 58.1704 43.3393C58.1656 43.3419 58.1608 43.3446 58.156 43.3473C58.1402 43.3562 58.1241 43.3651 58.1065 43.3733C58.097 43.3781 58.0873 43.3824 58.0773 43.3864C58.0665 43.3907 58.0555 43.3947 58.0444 43.3988C58.0354 43.4021 58.0263 43.4054 58.0172 43.4089C58.0109 43.4113 58.0049 43.414 57.9989 43.4166C57.9932 43.4191 57.9875 43.4216 57.9815 43.4239C57.975 43.4264 57.9681 43.4286 57.9607 43.4303C57.956 43.4315 57.9519 43.4315 57.9478 43.4315H57.9465C57.9428 43.4315 57.9391 43.4316 57.9349 43.4327C57.862 43.4517 57.7867 43.4635 57.7091 43.4635C57.6033 43.4635 57.5656 43.4801 57.5656 43.4801C57.5224 43.5307 57.4438 43.7838 57.394 43.9441L57.3893 43.9595C57.2058 44.5529 56.8225 45.7869 55.2727 45.7869C53.9471 45.7869 53.2886 44.8987 52.8068 44.2489L52.8034 44.2443C52.3518 43.6296 52.1802 43.4635 51.8415 43.4635C51.5029 43.4635 51.3335 43.6296 50.8796 44.2419L50.8763 44.2464C50.3945 44.8963 49.7359 45.7845 48.408 45.7845C47.0823 45.7845 46.4238 44.8963 45.942 44.2464L45.9386 44.2419C45.4871 43.6296 45.3154 43.4635 44.9767 43.4635C44.6404 43.4635 44.4688 43.6296 44.0149 44.2443C43.5351 44.8946 42.8742 45.7869 41.5455 45.7869C40.2175 45.7869 39.559 44.8987 39.0772 44.2489L39.0739 44.2443C38.6223 43.632 38.4506 43.4659 38.112 43.4659C37.7733 43.4659 37.604 43.632 37.1501 44.2443C36.6703 44.8946 36.0118 45.7869 34.6808 45.7869C33.3551 45.7869 32.6966 44.8987 32.2148 44.2489L32.2114 44.2443C31.7599 43.632 31.5882 43.4659 31.2496 43.4659C30.9133 43.4659 30.7416 43.6321 30.2877 44.2467C29.8079 44.897 29.1471 45.7894 27.8183 45.7894C26.4927 45.7894 25.8342 44.9012 25.3524 44.2513L25.349 44.2467C24.8975 43.6345 24.7258 43.4683 24.3871 43.4683C24.0508 43.4683 23.8791 43.6345 23.4253 44.2491C22.9455 44.8994 22.2846 45.7918 20.9559 45.7918C20.5349 45.7918 20.1516 45.6185 19.8812 45.3053C19.225 44.5506 19.3567 43.2643 19.6272 41.2281L19.6318 41.1928C19.7284 40.4561 19.8757 39.3325 19.8271 38.786C18.0704 39.1323 15.5775 42.6853 14.2841 45.2698C14.1242 45.5926 13.7973 45.7919 13.4445 45.7919C13.4257 45.7919 13.4069 45.7919 13.3881 45.7895C13.0142 45.7682 12.6873 45.5238 12.5603 45.1678C12.3439 44.5645 10.4955 39.1941 12.4168 36.2228C13.1364 35.1121 14.3029 34.4737 15.7939 34.3764C17.0897 34.291 17.6823 33.9397 17.7952 33.662C17.8705 33.4769 17.7505 33.1613 17.4871 32.8599C16.7863 32.0553 15.22 31.4098 13.4375 31.8987C10.9657 32.5731 8.19536 35.9169 7.26172 39.3534C6.93481 40.5614 6.58201 42.797 7.91782 44.1806C8.27999 44.5579 8.27058 45.1583 7.89901 45.5238C7.52508 45.8893 6.93247 45.8821 6.56796 45.5048C5.09341 43.9789 4.69597 41.6152 5.44617 38.8527C6.41727 35.2738 9.48876 31.0091 12.9458 30.0669C15.5209 29.3645 17.7903 30.3327 18.9003 31.6072C19.6694 32.4876 19.8998 33.501 19.5353 34.3886C19.2179 35.16 18.3336 36.114 15.916 36.273C15.0153 36.3324 14.3874 36.6575 13.9947 37.2626C13.2021 38.4872 13.3856 40.6587 13.7454 42.3912C15.1565 40.1057 17.6329 36.7856 20.1963 36.8663C20.6102 36.8805 20.9841 37.0609 21.2475 37.3765C21.5109 37.6898 21.6402 38.0956 21.6873 38.5987C23.4181 37.443 25.9442 36.299 30.9298 35.7912C25.5253 13.6963 35.685 1.25815 36.1459 0.709935C36.1499 0.705973 36.1538 0.702837 36.1575 0.699838C36.1628 0.695653 36.1677 0.691733 36.1718 0.686203C36.2 0.655349 36.2282 0.629243 36.2588 0.603138C36.2776 0.584152 36.2964 0.567539 36.3176 0.5533C36.3465 0.533858 36.3754 0.517602 36.4056 0.500617L36.4258 0.489221C36.4446 0.477354 36.4634 0.465488 36.4846 0.455995C36.5293 0.437009 36.5739 0.42277 36.621 0.410903C36.6319 0.409322 36.6429 0.40563 36.6539 0.401939L36.6539 0.401925C36.6594 0.400084 36.6649 0.398243 36.6704 0.396664C36.7339 0.382424 36.7997 0.375305 36.8679 0.375305L37.0067 0.380051C37.2842 0.380051 37.5452 0.501088 37.7239 0.714679C38.1848 1.26026 48.2949 13.6349 42.9871 35.6228C56.8667 36.4438 58.5647 42.0328 58.6305 42.2773C58.6329 42.2868 58.6329 42.2986 58.6352 42.3081L58.6493 42.4007C58.654 42.4339 58.6587 42.4671 58.6587 42.5004C58.6587 42.5027 58.6589 42.505 58.6591 42.5073L58.6599 42.5146C58.6602 42.5172 58.6605 42.5197 58.6608 42.5223C58.661 42.5245 58.6611 42.5266 58.6611 42.5288C58.6611 42.5352 58.6608 42.5412 58.6604 42.5472C58.6597 42.5574 58.6584 42.5672 58.6571 42.5777L58.6564 42.5834L58.6561 42.5868C58.6539 42.6191 58.6514 42.6534 58.6446 42.6855C58.6434 42.6927 58.6421 42.6999 58.6406 42.7071C58.6394 42.7131 58.6381 42.7192 58.6368 42.7253C58.6334 42.7405 58.6296 42.7557 58.6258 42.7709L58.621 42.7874L58.6177 42.799C58.6117 42.8203 58.6058 42.8413 58.5976 42.8611ZM37.8081 38.5465H40.2398C45.5949 20.8735 40.5573 8.95949 37.8081 4.22958V38.5465ZM35.9267 4.47868V38.5465H33.6338C28.3824 21.2173 33.1564 9.37919 35.9267 4.47868ZM55.599 43.42L55.6038 43.4045L55.6031 43.4046C55.7136 43.0486 55.9017 42.4648 56.365 42.0542C55.3235 40.7252 52.0381 37.9959 42.5018 37.4999C42.2949 38.2523 42.0714 39.0141 41.8269 39.7877C41.7022 40.1817 41.3401 40.4498 40.9309 40.4498H32.94C32.5308 40.4498 32.1686 40.1817 32.0439 39.7877C31.8182 39.0663 31.6112 38.3566 31.416 37.6566C25.3696 38.2309 23.206 39.7616 21.5528 41.0527C21.5454 41.1082 21.5385 41.1634 21.5314 41.2191C21.5204 41.3061 21.5092 41.3943 21.4963 41.4869C21.4046 42.1799 21.2635 43.2479 21.2917 43.8175C21.4634 43.7154 21.6375 43.5066 21.9197 43.1221L21.923 43.1176C22.4049 42.4677 23.0634 41.5795 24.3914 41.5795C25.717 41.5795 26.3755 42.4677 26.8573 43.1175L26.8607 43.1221C27.3122 43.7344 27.4839 43.9005 27.8226 43.9005C28.1612 43.9005 28.3306 43.7344 28.7844 43.1221L28.7878 43.1176C29.2696 42.4677 29.9282 41.5795 31.2561 41.5795C32.5818 41.5795 33.2403 42.4677 33.7221 43.1175L33.7255 43.1221C34.1794 43.7344 34.351 43.9005 34.6873 43.9005C35.026 43.9005 35.1953 43.7344 35.6492 43.1221C36.129 42.4719 36.7875 41.5795 38.1185 41.5795C39.4442 41.5795 40.1027 42.4677 40.5845 43.1175L40.5879 43.1221C41.0418 43.7368 41.2135 43.9029 41.5521 43.9029C41.8908 43.9029 42.0601 43.7368 42.514 43.1245L42.5173 43.12C42.9992 42.4701 43.6577 41.5819 44.9857 41.5819C46.3113 41.5819 46.9698 42.4701 47.4516 43.12L47.455 43.1245C47.9065 43.7368 48.0782 43.9029 48.4169 43.9029C48.7555 43.9029 48.9272 43.7368 49.3811 43.1221C49.8609 42.4719 50.5217 41.5795 51.8504 41.5795C53.1784 41.5795 53.8369 42.4677 54.3187 43.1175L54.3221 43.1221C54.776 43.7344 54.9477 43.9005 55.284 43.9005C55.3898 43.9005 55.4274 43.8839 55.4274 43.8839C55.4707 43.8333 55.5492 43.5803 55.599 43.42Z" fill="white"/>
<path d="M58.5623 42.9442L58.1225 42.7064L58.8802 43.3301L58.5623 42.9442ZM58.5976 42.8611L58.1354 42.6703L58.1285 42.6871L58.1228 42.7043L58.5976 42.8611ZM58.5628 42.9438L59.0108 43.1658L58.2449 42.5578L58.5628 42.9438ZM58.5063 43.0174L58.2272 42.6025L58.1397 42.6614L58.0834 42.7507L58.5063 43.0174ZM58.4734 43.0653L58.8796 43.3569L58.8797 43.3568L58.4734 43.0653ZM58.4569 43.0886L58.8488 43.3992L58.8587 43.3867L58.8677 43.3736L58.4569 43.0886ZM58.3958 43.1621L58.751 43.5141L58.7602 43.5047L58.769 43.4949L58.3958 43.1621ZM58.337 43.2191L58.0031 42.8469L57.9922 42.8567L57.9819 42.8671L58.337 43.2191ZM58.2618 43.2832L58.5408 43.698L58.5493 43.6923L58.5576 43.6862L58.2618 43.2832ZM58.2266 43.3062L57.9573 42.8849L57.9573 42.8849L58.2266 43.3062ZM58.1912 43.3282L58.4164 43.7746L58.4337 43.7659L58.4502 43.756L58.1912 43.3282ZM58.1704 43.3393L57.9294 42.9012L57.9293 42.9013L58.1704 43.3393ZM58.156 43.3473L57.9117 42.911L57.9116 42.9111L58.156 43.3473ZM58.1065 43.3733L57.8954 42.9201L57.8883 42.9234L57.8813 42.927L58.1065 43.3733ZM58.0773 43.3864L57.8912 42.9223L57.8911 42.9224L58.0773 43.3864ZM58.0444 43.3988L57.873 42.9291L57.873 42.9291L58.0444 43.3988ZM58.0172 43.4089L58.194 43.8766L58.1981 43.8751L58.0172 43.4089ZM57.9989 43.4166L58.1997 43.8745L58.1999 43.8744L57.9989 43.4166ZM57.9815 43.4239L58.1607 43.8907L58.161 43.8906L57.9815 43.4239ZM57.9607 43.4303L57.8513 42.9422L57.8383 42.9455L57.9607 43.4303ZM57.9465 43.4315L57.9465 42.9315L57.945 42.9315L57.9465 43.4315ZM57.9349 43.4327L57.8128 42.9478L57.8089 42.9488L57.9349 43.4327ZM57.5656 43.4801L57.3637 43.0227L57.2597 43.0687L57.1858 43.155L57.5656 43.4801ZM57.394 43.9441L57.8715 44.0925L57.8716 44.0924L57.394 43.9441ZM57.3893 43.9595L56.9118 43.8112L56.9116 43.8118L57.3893 43.9595ZM52.8068 44.2489L52.405 44.5465L52.4051 44.5467L52.8068 44.2489ZM52.8034 44.2443L52.4004 44.5403L52.4016 44.5419L52.8034 44.2443ZM50.8796 44.2419L51.2813 44.5397L51.2813 44.5396L50.8796 44.2419ZM50.8763 44.2464L50.4747 43.9486L50.4746 43.9486L50.8763 44.2464ZM45.942 44.2464L46.3437 43.9487L46.3436 43.9485L45.942 44.2464ZM45.9386 44.2419L45.5362 44.5386L45.5371 44.5398L45.9386 44.2419ZM44.0149 44.2443L43.6126 43.9473L43.6125 43.9474L44.0149 44.2443ZM39.0772 44.2489L39.4789 43.9511L39.4789 43.9511L39.0772 44.2489ZM39.0739 44.2443L38.6715 44.5411L38.6722 44.5421L39.0739 44.2443ZM37.1501 44.2443L36.7484 43.9465L36.7478 43.9474L37.1501 44.2443ZM32.2148 44.2489L32.6165 43.9511L32.6164 43.951L32.2148 44.2489ZM32.2114 44.2443L31.809 44.5411L31.8098 44.5421L32.2114 44.2443ZM30.2877 44.2467L29.8855 43.9497L29.8853 43.9499L30.2877 44.2467ZM25.3524 44.2513L25.7541 43.9535L25.754 43.9534L25.3524 44.2513ZM25.349 44.2467L24.9466 44.5435L24.9474 44.5446L25.349 44.2467ZM23.4253 44.2491L23.023 43.9521L23.0229 43.9523L23.4253 44.2491ZM19.8812 45.3053L20.2596 44.9785L20.2585 44.9772L19.8812 45.3053ZM19.6272 41.2281L20.1228 41.2939L20.1229 41.293L19.6272 41.2281ZM19.6318 41.1928L19.136 41.1278L19.136 41.1278L19.6318 41.1928ZM19.8271 38.786L20.3251 38.7417L20.2758 38.1879L19.7304 38.2954L19.8271 38.786ZM14.2841 45.2698L13.8369 45.046L13.836 45.0478L14.2841 45.2698ZM13.3881 45.7895L13.4506 45.2935L13.4337 45.2913L13.4166 45.2903L13.3881 45.7895ZM12.5603 45.1678L13.0312 44.9998L13.0309 44.999L12.5603 45.1678ZM12.4168 36.2228L11.9972 35.9509L11.997 35.9513L12.4168 36.2228ZM15.7939 34.3764L15.8265 34.8753L15.8268 34.8753L15.7939 34.3764ZM17.7952 33.662L18.2584 33.8503L18.2584 33.8503L17.7952 33.662ZM17.4871 32.8599L17.1101 33.1883L17.1106 33.1889L17.4871 32.8599ZM13.4375 31.8987L13.5691 32.3811L13.5697 32.3809L13.4375 31.8987ZM7.26172 39.3534L6.77921 39.2223L6.77908 39.2228L7.26172 39.3534ZM7.91782 44.1806L8.27856 43.8343L8.27753 43.8333L7.91782 44.1806ZM7.89901 45.5238L8.2485 45.8814L8.24963 45.8803L7.89901 45.5238ZM6.56796 45.5048L6.92757 45.1574L6.92751 45.1573L6.56796 45.5048ZM5.44617 38.8527L5.9287 38.9838L5.92873 38.9837L5.44617 38.8527ZM12.9458 30.0669L13.0773 30.5493L13.0774 30.5493L12.9458 30.0669ZM18.9003 31.6072L18.5233 31.9356L18.5238 31.9361L18.9003 31.6072ZM19.5353 34.3886L19.9977 34.5789L19.9978 34.5786L19.5353 34.3886ZM15.916 36.273L15.8832 35.7741L15.8831 35.7741L15.916 36.273ZM13.9947 37.2626L13.5753 36.9904L13.5749 36.991L13.9947 37.2626ZM13.7454 42.3912L13.2558 42.4929L13.5112 43.7223L14.1708 42.6539L13.7454 42.3912ZM20.1963 36.8663L20.2134 36.3666L20.212 36.3665L20.1963 36.8663ZM21.2475 37.3765L20.8636 37.6969L20.8648 37.6983L21.2475 37.3765ZM21.6873 38.5987L21.1894 38.6453L21.2675 39.4802L21.9649 39.0145L21.6873 38.5987ZM30.9298 35.7912L30.9805 36.2886L31.552 36.2304L31.4155 35.6724L30.9298 35.7912ZM36.1459 0.709935L35.7908 0.357968L35.7764 0.372501L35.7632 0.388163L36.1459 0.709935ZM36.1575 0.699838L36.4695 1.09055L36.4695 1.09055L36.1575 0.699838ZM36.1718 0.686203L35.8028 0.34875L35.7857 0.367525L35.7705 0.387947L36.1718 0.686203ZM36.2588 0.603138L36.5835 0.983381L36.5993 0.969865L36.614 0.95508L36.2588 0.603138ZM36.3176 0.5533L36.0385 0.138437L36.0385 0.138447L36.3176 0.5533ZM36.4056 0.500617L36.6508 0.936388L36.6513 0.936068L36.4056 0.500617ZM36.4258 0.489221L36.6715 0.924672L36.6822 0.918656L36.6925 0.912127L36.4258 0.489221ZM36.4846 0.455995L36.289 -0.00427721L36.28 -0.000220289L36.4846 0.455995ZM36.621 0.410903L36.5496 -0.0839802L36.5239 -0.0802689L36.4987 -0.0739065L36.621 0.410903ZM36.6539 0.401939L36.8133 0.875864L36.8178 0.874294L36.6539 0.401939ZM36.6539 0.401925L36.4946 -0.0720169L36.49 -0.07043L36.6539 0.401925ZM36.6704 0.396664L36.5609 -0.091216L36.5463 -0.0879323L36.5319 -0.0837767L36.6704 0.396664ZM36.8679 0.375305L36.885 -0.124403L36.8765 -0.124695H36.8679V0.375305ZM37.0067 0.380051L36.9896 0.879759L36.9981 0.880051H37.0067V0.380051ZM37.7239 0.714679L37.3405 1.03556L37.342 1.03735L37.7239 0.714679ZM42.9871 35.6228L42.501 35.5054L42.3608 36.0866L42.9576 36.1219L42.9871 35.6228ZM58.6305 42.2773L59.116 42.1571L59.1133 42.1472L58.6305 42.2773ZM58.6352 42.3081L59.1295 42.2328L59.1261 42.2102L59.1206 42.188L58.6352 42.3081ZM58.6493 42.4007L59.1444 42.3306L59.1436 42.3253L58.6493 42.4007ZM58.6591 42.5073L58.161 42.5526L58.1623 42.5635L58.6591 42.5073ZM58.6599 42.5146L58.1631 42.5708L58.1637 42.576L58.6599 42.5146ZM58.6608 42.5223L59.1589 42.4788L59.1589 42.4785L58.6608 42.5223ZM58.6604 42.5472L58.1617 42.511L58.1617 42.511L58.6604 42.5472ZM58.6571 42.5777L58.161 42.5155L58.1609 42.5158L58.6571 42.5777ZM58.6564 42.5834L58.1602 42.5215L58.1586 42.5348L58.1576 42.5481L58.6564 42.5834ZM58.6561 42.5868L58.1574 42.5515L58.1574 42.5516L58.6561 42.5868ZM58.6446 42.6855L58.1555 42.5816L58.1532 42.5927L58.1513 42.604L58.6446 42.6855ZM58.6406 42.7071L59.1308 42.8059L59.1308 42.8057L58.6406 42.7071ZM58.6368 42.7253L58.1489 42.6159L58.1489 42.6159L58.6368 42.7253ZM58.6258 42.7709L59.1055 42.9119L59.1085 42.9017L59.1111 42.8912L58.6258 42.7709ZM58.621 42.7874L58.1412 42.6464L58.1399 42.6512L58.621 42.7874ZM58.6177 42.799L58.1366 42.6628L58.1364 42.6635L58.6177 42.799ZM40.2398 38.5465V39.0465H40.6107L40.7183 38.6915L40.2398 38.5465ZM37.8081 38.5465H37.3081V39.0465H37.8081V38.5465ZM37.8081 4.22958L38.2404 3.97833L37.3081 2.37434V4.22958H37.8081ZM35.9267 38.5465V39.0465H36.4267V38.5465H35.9267ZM35.9267 4.47868H36.4267V2.57821L35.4915 4.23262L35.9267 4.47868ZM33.6338 38.5465L33.1553 38.6915L33.2629 39.0465H33.6338V38.5465ZM55.6038 43.4045L56.0814 43.5526L56.3126 42.8071L55.5387 42.9088L55.6038 43.4045ZM55.599 43.42L56.0765 43.5682L56.0766 43.5681L55.599 43.42ZM55.6031 43.4046L55.1256 43.2563L54.8941 44.002L55.6682 43.9003L55.6031 43.4046ZM56.365 42.0542L56.6966 42.4284L57.0489 42.1162L56.7586 41.7458L56.365 42.0542ZM42.5018 37.4999L42.5278 37.0006L42.1263 36.9797L42.0197 37.3673L42.5018 37.4999ZM41.8269 39.7877L42.3036 39.9386L42.3036 39.9384L41.8269 39.7877ZM32.0439 39.7877L31.5668 39.9371L31.5672 39.9385L32.0439 39.7877ZM31.416 37.6566L31.8976 37.5223L31.7853 37.1192L31.3687 37.1588L31.416 37.6566ZM21.5528 41.0527L21.245 40.6586L21.0839 40.7844L21.0571 40.9872L21.5528 41.0527ZM21.5314 41.2191L22.0275 41.2819L22.0275 41.2819L21.5314 41.2191ZM21.4963 41.4869L21.0011 41.4179L21.0007 41.4213L21.4963 41.4869ZM21.2917 43.8175L20.7924 43.8422L20.8334 44.6714L21.5472 44.2473L21.2917 43.8175ZM21.9197 43.1221L21.5179 42.8244L21.5166 42.8263L21.9197 43.1221ZM21.923 43.1176L21.5214 42.8198L21.5213 42.8199L21.923 43.1176ZM26.8573 43.1175L26.4556 43.4153L26.4557 43.4154L26.8573 43.1175ZM26.8607 43.1221L27.2631 42.8253L27.2623 42.8243L26.8607 43.1221ZM28.7844 43.1221L29.1861 43.4199L29.1862 43.4198L28.7844 43.1221ZM28.7878 43.1176L28.3862 42.8198L28.3861 42.8199L28.7878 43.1176ZM33.7221 43.1175L33.3204 43.4153L33.3205 43.4154L33.7221 43.1175ZM33.7255 43.1221L34.1271 42.8243L34.1271 42.8243L33.7255 43.1221ZM35.6492 43.1221L36.0509 43.4199L36.0516 43.419L35.6492 43.1221ZM40.5845 43.1175L40.9863 42.8199L40.9861 42.8197L40.5845 43.1175ZM40.5879 43.1221L40.9901 42.8251L40.9897 42.8245L40.5879 43.1221ZM42.514 43.1245L42.1123 42.8268L42.1123 42.8268L42.514 43.1245ZM42.5173 43.12L42.1157 42.8222L42.1157 42.8222L42.5173 43.12ZM47.4516 43.12L47.0499 43.4177L47.05 43.4178L47.4516 43.12ZM47.455 43.1245L47.8574 42.8278L47.8566 42.8267L47.455 43.1245ZM49.3811 43.1221L49.7833 43.4191L49.7834 43.419L49.3811 43.1221ZM54.3187 43.1175L53.9171 43.4153L53.9171 43.4154L54.3187 43.1175ZM54.3221 43.1221L54.7238 42.8243L54.7237 42.8243L54.3221 43.1221ZM55.4274 43.8839L55.6294 44.3413L55.7334 44.2954L55.8073 44.209L55.4274 43.8839ZM59.0022 43.1819C59.0328 43.1253 59.0555 43.0689 59.0724 43.0179L58.1228 42.7043C58.122 42.7069 58.1213 42.7085 58.121 42.7093C58.1207 42.71 58.1211 42.709 58.1225 42.7064L59.0022 43.1819ZM58.2449 42.5578L58.2445 42.5582L58.8802 43.3301L58.8806 43.3298L58.2449 42.5578ZM58.7854 43.4322C58.9333 43.3327 58.9958 43.196 59.0108 43.1658L58.1148 42.7218C58.1015 42.7486 58.1358 42.664 58.2272 42.6025L58.7854 43.4322ZM58.8797 43.3568C58.8897 43.3428 58.9092 43.3159 58.9293 43.284L58.0834 42.7507C58.0828 42.7517 58.0815 42.7535 58.079 42.7572C58.0762 42.7613 58.073 42.7657 58.0671 42.7739L58.8797 43.3568ZM58.8677 43.3736C58.8706 43.3695 58.8738 43.365 58.8796 43.3569L58.0672 42.7738C58.0621 42.781 58.0543 42.7918 58.0461 42.8035L58.8677 43.3736ZM58.769 43.4949C58.8 43.4602 58.8283 43.425 58.8488 43.3992L58.0651 42.7779C58.048 42.7996 58.034 42.8166 58.0226 42.8293L58.769 43.4949ZM58.6709 43.5913C58.7046 43.561 58.7334 43.5318 58.751 43.5141L58.0406 42.8102C58.0206 42.8304 58.0117 42.8392 58.0031 42.8469L58.6709 43.5913ZM58.5576 43.6862C58.5988 43.656 58.6458 43.6178 58.6922 43.571L57.9819 42.8671C57.9817 42.8673 57.9804 42.8686 57.9776 42.871C57.9747 42.8734 57.9709 42.8764 57.9659 42.8801L58.5576 43.6862ZM58.4958 43.7275C58.5112 43.7177 58.5265 43.7076 58.5408 43.698L57.9827 42.8683C57.9753 42.8732 57.9666 42.879 57.9573 42.8849L58.4958 43.7275ZM58.4502 43.756C58.4656 43.7466 58.4812 43.7369 58.4959 43.7275L57.9573 42.8849C57.9483 42.8906 57.9398 42.896 57.9322 42.9005L58.4502 43.756ZM58.4113 43.7774C58.4154 43.7751 58.4167 43.7745 58.4164 43.7746L57.966 42.8819C57.9516 42.8891 57.9391 42.8959 57.9294 42.9012L58.4113 43.7774ZM58.4003 43.7835C58.4054 43.7807 58.4086 43.7789 58.4115 43.7773L57.9293 42.9013C57.9226 42.9049 57.9163 42.9085 57.9117 42.911L58.4003 43.7835ZM58.3177 43.8266C58.3548 43.8093 58.3865 43.7913 58.4004 43.7835L57.9116 42.9111C57.9031 42.9159 57.8993 42.918 57.8961 42.9197C57.8935 42.9211 57.8936 42.9209 57.8954 42.9201L58.3177 43.8266ZM58.2634 43.8504C58.2821 43.8429 58.3058 43.8329 58.3318 43.8197L57.8813 42.927C57.8883 42.9234 57.8924 42.9218 57.8912 42.9223L58.2634 43.8504ZM58.2158 43.8685C58.2257 43.8649 58.2442 43.8582 58.2636 43.8504L57.8911 42.9224C57.8889 42.9232 57.8854 42.9246 57.873 42.9291L58.2158 43.8685ZM58.1981 43.8751C58.2017 43.8737 58.2061 43.872 58.2158 43.8685L57.873 42.9291C57.8647 42.9321 57.8509 42.9372 57.8363 42.9428L58.1981 43.8751ZM58.1999 43.8744C58.2034 43.8729 58.2034 43.8729 58.2029 43.8731C58.202 43.8735 58.1987 43.8748 58.194 43.8766L57.8403 42.9413C57.8199 42.949 57.8021 42.9569 57.7979 42.9588L58.1999 43.8744ZM58.161 43.8906C58.1794 43.8835 58.1955 43.8763 58.1997 43.8745L57.7981 42.9587C57.7948 42.9601 57.7946 42.9602 57.7949 42.9601C57.7955 42.9598 57.7981 42.9587 57.8021 42.9572L58.161 43.8906ZM58.0701 43.9182C58.1075 43.9098 58.1384 43.8993 58.1607 43.8907L57.8023 42.9571C57.8116 42.9535 57.8287 42.9475 57.8514 42.9424L58.0701 43.9182ZM57.9478 43.9315C57.9485 43.9315 58.0107 43.9334 58.0832 43.9151L57.8383 42.9455C57.9013 42.9296 57.9553 42.9315 57.9478 42.9315V43.9315ZM57.9465 43.9315H57.9478V42.9315H57.9465V43.9315ZM58.057 43.9175C57.9997 43.9319 57.9533 43.9315 57.9481 43.9315L57.945 42.9315C57.9323 42.9315 57.8784 42.9313 57.8128 42.9478L58.057 43.9175ZM57.7091 43.9635C57.8379 43.9635 57.9561 43.9438 58.0609 43.9165L57.8089 42.9488C57.7678 42.9595 57.7355 42.9635 57.7091 42.9635V43.9635ZM57.5656 43.4801C57.7676 43.9375 57.7674 43.9376 57.7671 43.9377C57.767 43.9378 57.7668 43.9379 57.7667 43.9379C57.7664 43.9381 57.766 43.9382 57.7657 43.9384C57.7651 43.9386 57.7645 43.9389 57.7639 43.9391C57.7627 43.9397 57.7615 43.9402 57.7603 43.9407C57.7579 43.9417 57.7556 43.9427 57.7532 43.9436C57.7486 43.9455 57.7442 43.9472 57.74 43.9487C57.7315 43.9518 57.7239 43.9543 57.7171 43.9564C57.7036 43.9604 57.6936 43.9626 57.6879 43.9636C57.6768 43.9657 57.6821 43.9635 57.7091 43.9635V42.9635C57.6303 42.9635 57.5639 42.9697 57.5075 42.98C57.4791 42.9852 57.4531 42.9915 57.4292 42.9987C57.4173 43.0023 57.4059 43.0061 57.3949 43.0101C57.3895 43.0121 57.3841 43.0142 57.3789 43.0163C57.3763 43.0174 57.3738 43.0184 57.3712 43.0195C57.37 43.02 57.3687 43.0206 57.3674 43.0211C57.3668 43.0214 57.3662 43.0216 57.3656 43.0219C57.3652 43.0221 57.3649 43.0222 57.3646 43.0223C57.3645 43.0224 57.3642 43.0225 57.3642 43.0225C57.3639 43.0226 57.3637 43.0227 57.5656 43.4801ZM57.8716 44.0924C57.897 44.0105 57.9265 43.9156 57.9544 43.8357C57.9684 43.7953 57.9796 43.766 57.9875 43.7477C57.9914 43.7384 57.9922 43.7374 57.9899 43.7418C57.9886 43.7443 57.9851 43.7508 57.9793 43.7599C57.974 43.7681 57.9629 43.785 57.9455 43.8052L57.1858 43.155C57.1184 43.2337 57.0795 43.3275 57.0677 43.3552C57.0471 43.4035 57.0274 43.457 57.0102 43.5063C56.9755 43.6056 56.9409 43.7175 56.9165 43.7959L57.8716 44.0924ZM57.8667 44.1079L57.8715 44.0925L56.9166 43.7958L56.9118 43.8112L57.8667 44.1079ZM55.2727 46.2869C56.205 46.2869 56.8279 45.9052 57.2307 45.412C57.6123 44.9446 57.7769 44.3984 57.867 44.1072L56.9116 43.8118C56.8182 44.114 56.6994 44.4815 56.4561 44.7795C56.2339 45.0516 55.8902 45.2869 55.2727 45.2869V46.2869ZM52.4051 44.5467C52.8791 45.1859 53.6727 46.2869 55.2727 46.2869V45.2869C54.2215 45.2869 53.6981 44.6116 53.2084 43.9511L52.4051 44.5467ZM52.4016 44.5419L52.405 44.5465L53.2086 43.9513L53.2052 43.9467L52.4016 44.5419ZM51.8415 43.9635C51.884 43.9635 51.8991 43.9685 51.9036 43.9701C51.9079 43.9716 51.9245 43.9778 51.9596 44.0071C52.0471 44.0802 52.1686 44.2247 52.4004 44.5403L53.2064 43.9483C52.9866 43.6491 52.7966 43.4033 52.6007 43.2396C52.3657 43.0434 52.1236 42.9635 51.8415 42.9635V43.9635ZM51.2813 44.5396C51.5148 44.2246 51.6364 44.0802 51.7242 44.0069C51.7594 43.9775 51.7759 43.9715 51.7799 43.97C51.7841 43.9685 51.799 43.9635 51.8415 43.9635V42.9635C51.5592 42.9635 51.3177 43.0435 51.0833 43.2392C50.8884 43.402 50.6983 43.6468 50.478 43.9441L51.2813 44.5396ZM51.2779 44.5442L51.2813 44.5397L50.478 43.944L50.4747 43.9486L51.2779 44.5442ZM48.408 46.2845C50.0101 46.2845 50.8038 45.1837 51.2779 44.5442L50.4746 43.9486C49.9852 44.6088 49.4617 45.2845 48.408 45.2845V46.2845ZM45.5404 44.5442C46.0143 45.1835 46.8079 46.2845 48.408 46.2845V45.2845C47.3567 45.2845 46.8333 44.6091 46.3437 43.9487L45.5404 44.5442ZM45.5371 44.5398L45.5405 44.5444L46.3436 43.9485L46.3402 43.9439L45.5371 44.5398ZM44.9767 43.9635C45.0193 43.9635 45.0344 43.9685 45.039 43.9701C45.0435 43.9717 45.0602 43.9779 45.0953 44.0072C45.1828 44.0801 45.3044 44.2243 45.5362 44.5386L46.341 43.9451C46.1213 43.6472 45.9313 43.4021 45.7354 43.2389C45.5006 43.0433 45.2587 42.9635 44.9767 42.9635V43.9635ZM44.4171 44.5413C44.6501 44.2257 44.7724 44.0806 44.8605 44.0071C44.8959 43.9775 44.9126 43.9713 44.9166 43.9699C44.9208 43.9684 44.9352 43.9635 44.9767 43.9635V42.9635C44.6949 42.9635 44.4536 43.044 44.2193 43.2397C44.024 43.4029 43.8335 43.6482 43.6126 43.9473L44.4171 44.5413ZM41.5455 46.2869C43.149 46.2869 43.9449 45.1813 44.4172 44.5411L43.6125 43.9474C43.1253 44.6078 42.5994 45.2869 41.5455 45.2869V46.2869ZM38.6756 44.5466C39.1497 45.1862 39.9433 46.2869 41.5455 46.2869V45.2869C40.4918 45.2869 39.9683 44.6113 39.4789 43.9511L38.6756 44.5466ZM38.6722 44.5421L38.6756 44.5467L39.4789 43.9511L39.4755 43.9465L38.6722 44.5421ZM38.112 43.9659C38.1545 43.9659 38.1697 43.9709 38.1743 43.9726C38.1787 43.9741 38.1954 43.9804 38.2305 44.0096C38.3181 44.0826 38.4396 44.2267 38.6715 44.5411L39.4763 43.9475C39.2566 43.6496 39.0665 43.4045 38.8706 43.2414C38.6359 43.0457 38.394 42.9659 38.112 42.9659V43.9659ZM37.5518 44.542C37.7853 44.227 37.9069 44.0826 37.9947 44.0093C38.0299 43.9799 38.0463 43.9739 38.0504 43.9724C38.0546 43.9709 38.0695 43.9659 38.112 43.9659V42.9659C37.8296 42.9659 37.5882 43.046 37.3538 43.2417C37.1588 43.4045 36.9688 43.6493 36.7484 43.9465L37.5518 44.542ZM34.6808 46.2869C36.2868 46.2869 37.0803 45.181 37.5524 44.5411L36.7478 43.9474C36.2603 44.6081 35.7369 45.2869 34.6808 45.2869V46.2869ZM31.8132 44.5467C32.2871 45.1859 33.0807 46.2869 34.6808 46.2869V45.2869C33.6295 45.2869 33.1062 44.6116 32.6165 43.9511L31.8132 44.5467ZM31.8098 44.5421L31.8132 44.5467L32.6164 43.951L32.613 43.9464L31.8098 44.5421ZM31.2496 43.9659C31.2921 43.9659 31.3072 43.9709 31.3118 43.9726C31.3163 43.9741 31.333 43.9804 31.3681 44.0096C31.4556 44.0826 31.5772 44.2267 31.809 44.5411L32.6138 43.9475C32.3941 43.6496 32.2041 43.4045 32.0082 43.2414C31.7734 43.0457 31.5315 42.9659 31.2496 42.9659V43.9659ZM30.6899 44.5437C30.9229 44.2282 31.0453 44.0831 31.1333 44.0095C31.1687 43.9799 31.1854 43.9738 31.1894 43.9723C31.1936 43.9708 31.208 43.9659 31.2496 43.9659V42.9659C30.9677 42.9659 30.7264 43.0464 30.4921 43.2421C30.2968 43.4053 30.1063 43.6506 29.8855 43.9497L30.6899 44.5437ZM27.8183 46.2894C29.4219 46.2894 30.2177 45.1838 30.69 44.5436L29.8853 43.9499C29.3981 44.6102 28.8723 45.2894 27.8183 45.2894V46.2894ZM24.9508 44.5491C25.4247 45.1883 26.2183 46.2894 27.8183 46.2894V45.2894C26.7671 45.2894 26.2437 44.614 25.7541 43.9535L24.9508 44.5491ZM24.9474 44.5446L24.9508 44.5492L25.754 43.9534L25.7506 43.9489L24.9474 44.5446ZM24.3871 43.9683C24.4296 43.9683 24.4448 43.9734 24.4494 43.975C24.4538 43.9766 24.4705 43.9828 24.5057 44.0121C24.5932 44.085 24.7148 44.2291 24.9466 44.5435L25.7514 43.9499C25.5317 43.6521 25.3416 43.407 25.1458 43.2438C24.911 43.0482 24.6691 42.9683 24.3871 42.9683V43.9683ZM23.8275 44.5462C24.0605 44.2306 24.1828 44.0855 24.2708 44.012C24.3063 43.9824 24.3229 43.9762 24.327 43.9747C24.3311 43.9733 24.3456 43.9683 24.3871 43.9683V42.9683C24.1052 42.9683 23.864 43.0488 23.6297 43.2445C23.4343 43.4077 23.2439 43.653 23.023 43.9521L23.8275 44.5462ZM20.9559 46.2918C22.5594 46.2918 23.3553 45.1862 23.8276 44.546L23.0229 43.9523C22.5357 44.6126 22.0098 45.2918 20.9559 45.2918V46.2918ZM19.5027 45.632C19.8702 46.0577 20.3928 46.2918 20.9559 46.2918V45.2918C20.677 45.2918 20.433 45.1794 20.2596 44.9785L19.5027 45.632ZM19.1315 41.1622C18.9974 42.1717 18.8905 43.0423 18.9068 43.7587C18.9232 44.479 19.0646 45.1282 19.5038 45.6333L20.2585 44.9772C20.0416 44.7277 19.9207 44.3564 19.9066 43.7359C19.8923 43.1114 19.9864 42.3207 20.1228 41.2939L19.1315 41.1622ZM19.136 41.1278L19.1314 41.1631L20.1229 41.293L20.1275 41.2578L19.136 41.1278ZM19.329 38.8303C19.3487 39.0519 19.3292 39.4271 19.2862 39.8698C19.2443 40.3014 19.1845 40.7581 19.136 41.1278L20.1275 41.2578C20.1757 40.8907 20.2378 40.4174 20.2815 39.9664C20.3242 39.5264 20.354 39.0666 20.3251 38.7417L19.329 38.8303ZM14.7312 45.4936C15.3642 44.2288 16.2923 42.7249 17.2722 41.5011C17.7621 40.8891 18.2562 40.3583 18.724 39.9641C19.2007 39.5623 19.6077 39.3389 19.9238 39.2766L19.7304 38.2954C19.1681 38.4063 18.6047 38.7568 18.0795 39.1994C17.5454 39.6496 17.006 40.2335 16.4915 40.8761C15.4624 42.1615 14.4974 43.7263 13.8369 45.046L14.7312 45.4936ZM13.4445 46.2919C13.9862 46.2919 14.4873 45.9859 14.7321 45.4917L13.836 45.0478C13.761 45.1993 13.6084 45.2919 13.4445 45.2919V46.2919ZM13.3255 46.2856C13.3806 46.2926 13.4308 46.2919 13.4445 46.2919V45.2919C13.4395 45.2919 13.4368 45.2919 13.4344 45.2919C13.4322 45.2919 13.4316 45.2918 13.4321 45.2919C13.4328 45.2919 13.4399 45.2921 13.4506 45.2935L13.3255 46.2856ZM12.0893 45.3358C12.2836 45.8802 12.7842 46.2559 13.3596 46.2887L13.4166 45.2903C13.2441 45.2805 13.091 45.1673 13.0312 44.9998L12.0893 45.3358ZM11.997 35.9513C10.933 37.5967 10.9395 39.8398 11.1917 41.6522C11.4475 43.4906 11.9764 45.0209 12.0896 45.3365L13.0309 44.999C12.9278 44.7114 12.4243 43.2547 12.1821 41.5144C11.9363 39.7479 11.9793 37.8201 12.8367 36.4943L11.997 35.9513ZM15.7614 33.8774C14.1358 33.9835 12.8146 34.6893 11.9972 35.9509L12.8365 36.4947C13.4583 35.5348 14.47 34.9638 15.8265 34.8753L15.7614 33.8774ZM17.332 33.4737C17.3527 33.423 17.3335 33.5116 17.0482 33.6288C16.7883 33.7355 16.373 33.8371 15.761 33.8775L15.8268 34.8753C16.5106 34.8302 17.0395 34.7135 17.4281 34.5538C17.7913 34.4046 18.1249 34.1787 18.2584 33.8503L17.332 33.4737ZM17.1106 33.1889C17.2128 33.3058 17.2733 33.4104 17.3012 33.4833C17.315 33.5192 17.3172 33.5381 17.3174 33.5404C17.3176 33.5431 17.3148 33.5161 17.332 33.4737L18.2584 33.8503C18.3651 33.5878 18.3085 33.3175 18.2351 33.1257C18.156 32.9193 18.0248 32.7153 17.8636 32.5308L17.1106 33.1889ZM13.5697 32.3809C15.1783 31.9397 16.5429 32.5371 17.1101 33.1883L17.8642 32.5314C17.0297 31.5736 15.2618 30.8799 13.3052 31.4165L13.5697 32.3809ZM7.74423 39.4845C8.19051 37.8419 9.0804 36.2098 10.1578 34.9093C11.2431 33.5993 12.4724 32.6803 13.5691 32.3811L13.3058 31.4163C11.9307 31.7915 10.539 32.8817 9.38775 34.2713C8.22865 35.6704 7.26658 37.4284 6.77921 39.2223L7.74423 39.4845ZM8.27753 43.8333C7.72402 43.26 7.50063 42.491 7.46579 41.6797C7.43094 40.8681 7.5878 40.0625 7.74436 39.484L6.77908 39.2228C6.60873 39.8522 6.42574 40.7684 6.46671 41.7226C6.5077 42.677 6.77582 43.7176 7.55811 44.5278L8.27753 43.8333ZM8.24963 45.8803C8.81629 45.3229 8.83036 44.4093 8.27856 43.8343L7.55709 44.5268C7.72962 44.7065 7.72488 44.9937 7.54839 45.1673L8.24963 45.8803ZM6.20834 45.8522C6.76603 46.4295 7.67681 46.4401 8.2485 45.8814L7.54952 45.1662C7.37336 45.3384 7.09892 45.3348 6.92757 45.1574L6.20834 45.8522ZM4.96365 38.7217C4.18553 41.587 4.56975 44.1566 6.20841 45.8523L6.92751 45.1573C5.61708 43.8013 5.20642 41.6434 5.9287 38.9838L4.96365 38.7217ZM12.8143 29.5845C10.9466 30.0936 9.23242 31.4808 7.87523 33.1563C6.51342 34.8375 5.46874 36.8602 4.96362 38.7218L5.92873 38.9837C6.39471 37.2663 7.37131 35.3672 8.65228 33.7858C9.93787 32.1987 11.488 30.9825 13.0773 30.5493L12.8143 29.5845ZM19.2774 31.2788C18.0424 29.8609 15.5759 28.8312 12.8142 29.5845L13.0774 30.5493C15.4659 29.8978 17.5382 30.8045 18.5233 31.9356L19.2774 31.2788ZM19.9978 34.5786C20.4513 33.4743 20.1381 32.2643 19.2769 31.2783L18.5238 31.9361C19.2006 32.711 19.3483 33.5278 19.0728 34.1987L19.9978 34.5786ZM15.9488 36.7719C17.2171 36.6885 18.1289 36.3937 18.7798 35.9834C19.4362 35.5697 19.8021 35.0543 19.9977 34.5789L19.0729 34.1983C18.9511 34.4943 18.7161 34.8415 18.2466 35.1374C17.7716 35.4368 17.0325 35.6985 15.8832 35.7741L15.9488 36.7719ZM14.4141 37.5348C14.7001 37.0941 15.163 36.8237 15.9489 36.7719L15.8831 35.7741C14.8676 35.841 14.0747 36.2208 13.5753 36.9905L14.4141 37.5348ZM14.2349 42.2896C14.0592 41.4436 13.9301 40.5054 13.9379 39.641C13.9458 38.7645 14.0944 38.0289 14.4144 37.5343L13.5749 36.991C13.1025 37.721 12.9465 38.6835 12.9379 39.632C12.9293 40.5925 13.0717 41.6064 13.2558 42.4929L14.2349 42.2896ZM20.212 36.3665C18.7158 36.3194 17.3265 37.257 16.1868 38.3862C15.03 39.5325 14.0339 40.9722 13.32 42.1285L14.1708 42.6539C14.868 41.5248 15.8157 40.1617 16.8906 39.0966C17.9828 38.0146 19.1134 37.3324 20.1805 37.366L20.212 36.3665ZM21.6314 37.0562C21.2751 36.6293 20.7669 36.3856 20.2134 36.3666L20.1791 37.366C20.4535 37.3754 20.693 37.4925 20.8636 37.6969L21.6314 37.0562ZM22.1851 38.5522C22.1328 37.9933 21.9834 37.4748 21.6302 37.0547L20.8648 37.6983C21.0384 37.9047 21.1476 38.1979 21.1894 38.6453L22.1851 38.5522ZM30.8791 35.2937C25.8274 35.8084 23.2199 36.9741 21.4096 38.1829L21.9649 39.0145C23.6163 37.9119 26.0609 36.7897 30.9805 36.2886L30.8791 35.2937ZM35.7632 0.388163C35.243 1.00689 24.9882 13.6048 30.4441 35.91L31.4155 35.6724C26.0625 13.7879 36.127 1.50942 36.5286 1.03171L35.7632 0.388163ZM35.8455 0.309128C35.8436 0.310697 35.8179 0.330594 35.7908 0.357968L36.5011 1.0619C36.4907 1.07232 36.4818 1.08021 36.476 1.08518C36.471 1.08945 36.4668 1.09272 36.4695 1.09055L35.8455 0.309128ZM35.7705 0.387947C35.792 0.359055 35.8129 0.338084 35.8274 0.324809C35.8396 0.313641 35.8505 0.305201 35.8455 0.309131L36.4695 1.09055C36.4699 1.09029 36.4858 1.0778 36.5028 1.06224C36.5221 1.04458 36.5475 1.01888 36.5731 0.984458L35.7705 0.387947ZM35.9341 0.222896C35.8934 0.25767 35.8491 0.298222 35.8028 0.34875L36.5407 1.02366C36.551 1.01248 36.5631 1.00082 36.5835 0.983381L35.9341 0.222896ZM36.0385 0.138447C35.9813 0.176918 35.937 0.217581 35.9037 0.251196L36.614 0.95508C36.6183 0.950724 36.6116 0.958161 36.5967 0.968152L36.0385 0.138447ZM36.1604 0.0648471C36.1327 0.0804501 36.0866 0.106108 36.0385 0.138437L36.5967 0.968162C36.6064 0.961608 36.6181 0.954753 36.6507 0.936388L36.1604 0.0648471ZM36.1801 0.0537706L36.1599 0.0651669L36.6513 0.936068L36.6715 0.924672L36.1801 0.0537706ZM36.28 -0.000220289C36.2215 0.0259873 36.1738 0.0570316 36.159 0.0663155L36.6925 0.912127C36.6975 0.90896 36.7003 0.907215 36.7028 0.905688C36.705 0.9043 36.7057 0.903899 36.7055 0.904042C36.705 0.904334 36.699 0.90782 36.6892 0.912211L36.28 -0.000220289ZM36.4987 -0.0739065C36.432 -0.0570756 36.362 -0.0352 36.289 -0.00418677L36.6801 0.916177C36.6965 0.909219 36.7159 0.902615 36.7433 0.895713L36.4987 -0.0739065ZM36.4945 -0.0719645C36.4871 -0.0695012 36.4921 -0.0712483 36.4989 -0.0732152C36.5067 -0.0754696 36.5249 -0.0804175 36.5496 -0.0839802L36.6923 0.905787C36.7563 0.896568 36.8111 0.876595 36.8133 0.875842L36.4945 -0.0719645ZM36.49 -0.07043L36.4899 -0.0704161L36.8178 0.874294L36.8179 0.87428L36.49 -0.07043ZM36.5319 -0.0837767C36.5141 -0.0786509 36.4982 -0.0732187 36.4946 -0.0719947L36.8133 0.875845C36.8165 0.874778 36.8166 0.874727 36.8164 0.874814C36.8158 0.87499 36.813 0.875897 36.8088 0.877105L36.5319 -0.0837767ZM36.8679 -0.124695C36.7647 -0.124695 36.662 -0.11389 36.5609 -0.091216L36.7798 0.884545C36.8057 0.878739 36.8347 0.875305 36.8679 0.875305V-0.124695ZM37.0237 -0.119656L36.885 -0.124403L36.8508 0.875013L36.9896 0.879759L37.0237 -0.119656ZM38.1074 0.393801C37.8331 0.0660522 37.4314 -0.119949 37.0067 -0.119949V0.880051C37.1369 0.880051 37.2573 0.936123 37.3405 1.03556L38.1074 0.393801ZM43.4731 35.7401C48.8316 13.5426 38.6269 1.00871 38.1059 0.392003L37.342 1.03735C37.7428 1.51181 47.7583 13.7271 42.501 35.5054L43.4731 35.7401ZM59.1133 42.1472C59.0531 41.9236 58.5494 40.362 56.2773 38.7578C54.0118 37.1583 50.0188 35.5379 43.0166 35.1236L42.9576 36.1219C49.835 36.5287 53.6307 38.1133 55.7006 39.5747C57.7638 41.0314 58.1421 42.3865 58.1477 42.4073L59.1133 42.1472ZM59.1206 42.188C59.1255 42.2081 59.1279 42.2238 59.1289 42.2306C59.1294 42.2343 59.1298 42.2371 59.1299 42.2382C59.13 42.239 59.13 42.2396 59.1299 42.2379C59.1297 42.2369 59.1294 42.2337 59.129 42.2302C59.1285 42.2265 59.1279 42.221 59.127 42.2147C59.1253 42.2027 59.122 42.182 59.1159 42.1571L58.1452 42.3974C58.1402 42.3773 58.1378 42.3617 58.1368 42.3549C58.1363 42.3511 58.136 42.3483 58.1359 42.3472C58.1358 42.3464 58.1357 42.3458 58.1359 42.3475C58.136 42.3485 58.1363 42.3517 58.1368 42.3552C58.1372 42.3589 58.1379 42.3643 58.1388 42.3707C58.1405 42.3827 58.1437 42.4034 58.1499 42.4282L59.1206 42.188ZM59.1436 42.3253L59.1295 42.2328L58.1409 42.3835L58.155 42.476L59.1436 42.3253ZM59.1587 42.5004C59.1587 42.426 59.1482 42.3577 59.1444 42.3306L58.1543 42.4708C58.1555 42.4794 58.1564 42.4856 58.1571 42.4914C58.1579 42.4969 58.1583 42.5007 58.1586 42.5033C58.1592 42.5088 58.1587 42.5069 58.1587 42.5004H59.1587ZM59.157 42.462C59.1577 42.4697 59.1587 42.4832 59.1587 42.5004H58.1587C58.1587 42.5221 58.16 42.5403 58.1611 42.5526L59.157 42.462ZM59.1567 42.4584L59.1559 42.451L58.1623 42.5635L58.1631 42.5708L59.1567 42.4584ZM59.1589 42.4785C59.1577 42.4657 59.1563 42.4543 59.1561 42.4532L58.1637 42.576C58.1639 42.5776 58.1638 42.5767 58.1636 42.5754C58.1635 42.5739 58.1631 42.5705 58.1627 42.566L59.1589 42.4785ZM59.1611 42.5288C59.1611 42.5078 59.1599 42.4904 59.1589 42.4788L58.1627 42.5657C58.162 42.5585 58.1611 42.5455 58.1611 42.5288H59.1611ZM59.1591 42.5835C59.1602 42.5675 59.1611 42.5492 59.1611 42.5288H58.1611C58.1611 42.5211 58.1614 42.515 58.1617 42.511L59.1591 42.5835ZM59.1532 42.64C59.1543 42.6316 59.1572 42.6088 59.1591 42.5834L58.1617 42.511C58.1619 42.5077 58.1622 42.5058 58.1621 42.5066C58.1619 42.5079 58.1617 42.5097 58.161 42.5155L59.1532 42.64ZM59.1525 42.6454L59.1532 42.6397L58.1609 42.5158L58.1602 42.5215L59.1525 42.6454ZM59.1549 42.6221L59.1551 42.6187L58.1576 42.5481L58.1574 42.5515L59.1549 42.6221ZM59.1337 42.7893C59.149 42.7174 59.1531 42.6478 59.1549 42.622L58.1574 42.5516C58.1568 42.56 58.1564 42.566 58.1559 42.5718C58.1555 42.5774 58.1551 42.5812 58.1548 42.584C58.1542 42.5903 58.1541 42.5883 58.1555 42.5816L59.1337 42.7893ZM59.1308 42.8057C59.1332 42.7939 59.1356 42.7809 59.1379 42.767L58.1513 42.604C58.1512 42.6045 58.151 42.6059 58.1505 42.6085L59.1308 42.8057ZM59.1247 42.8346C59.1267 42.8257 59.1287 42.816 59.1308 42.8059L58.1505 42.6083C58.1501 42.6103 58.1496 42.6127 58.1489 42.6159L59.1247 42.8346ZM59.1111 42.8912C59.1147 42.8768 59.1198 42.8562 59.1247 42.8346L58.1489 42.6159C58.1469 42.6247 58.1445 42.6346 58.1405 42.6506L59.1111 42.8912ZM59.1007 42.9284L59.1055 42.9119L58.1461 42.6299L58.1413 42.6464L59.1007 42.9284ZM59.0988 42.9352L59.1021 42.9236L58.1399 42.6512L58.1366 42.6628L59.0988 42.9352ZM59.0598 43.0519C59.081 43.0004 59.0944 42.9507 59.099 42.9345L58.1364 42.6635C58.1348 42.6691 58.1338 42.6727 58.1329 42.6759C58.132 42.679 58.1315 42.6806 58.1313 42.6813C58.1308 42.6828 58.1321 42.6782 58.1354 42.6703L59.0598 43.0519ZM40.2398 38.0465H37.8081V39.0465H40.2398V38.0465ZM37.3758 4.48084C40.0722 9.11987 45.0673 20.8903 39.7613 38.4015L40.7183 38.6915C46.1225 20.8566 41.0424 8.79911 38.2404 3.97833L37.3758 4.48084ZM38.3081 38.5465V4.22958H37.3081V38.5465H38.3081ZM36.4267 38.5465V4.47868H35.4267V38.5465H36.4267ZM33.6338 39.0465H35.9267V38.0465H33.6338V39.0465ZM35.4915 4.23262C32.6698 9.22387 27.8557 21.2035 33.1553 38.6915L34.1123 38.4015C28.909 21.2312 33.643 9.53451 36.362 4.72474L35.4915 4.23262ZM55.1263 43.2564L55.1215 43.2719L56.0766 43.5681L56.0814 43.5526L55.1263 43.2564ZM55.6682 43.9003L55.6689 43.9002L55.5387 42.9088L55.538 42.9089L55.6682 43.9003ZM56.0334 41.68C55.454 42.1934 55.2343 42.9062 55.1256 43.2563L56.0806 43.5529C56.193 43.1909 56.3494 42.7361 56.6966 42.4284L56.0334 41.68ZM42.4758 37.9993C51.9292 38.4909 55.0511 41.1881 55.9715 42.3626L56.7586 41.7458C55.5959 40.2622 52.1471 37.5009 42.5278 37.0006L42.4758 37.9993ZM42.3036 39.9384C42.5503 39.1583 42.7754 38.3904 42.9839 37.6325L42.0197 37.3673C41.8143 38.1141 41.5926 38.8699 41.3501 39.637L42.3036 39.9384ZM40.9309 40.9498C41.5618 40.9498 42.1142 40.5368 42.3036 39.9386L41.3502 39.6368C41.2901 39.8265 41.1183 39.9498 40.9309 39.9498V40.9498ZM32.94 40.9498H40.9309V39.9498H32.94V40.9498ZM31.5672 39.9385C31.7565 40.5369 32.309 40.9498 32.94 40.9498V39.9498C32.7525 39.9498 32.5806 39.8265 32.5207 39.6369L31.5672 39.9385ZM30.9344 37.7908C31.1307 38.4948 31.3391 39.2095 31.5668 39.9371L32.5211 39.6384C32.2972 38.923 32.0918 38.2185 31.8976 37.5223L30.9344 37.7908ZM21.8605 41.4467C22.6731 40.8122 23.5853 40.1389 25.0265 39.5485C26.4734 38.9558 28.4754 38.4381 31.4633 38.1543L31.3687 37.1588C28.3102 37.4493 26.2073 37.9841 24.6474 38.6231C23.0819 39.2645 22.0857 40.0021 21.245 40.6586L21.8605 41.4467ZM22.0275 41.2819C22.0345 41.226 22.0413 41.1721 22.0485 41.1181L21.0571 40.9872C21.0495 41.0443 21.0424 41.1009 21.0354 41.1564L22.0275 41.2819ZM21.9916 41.556C22.005 41.4597 22.0165 41.3685 22.0275 41.2819L21.0354 41.1564C21.0243 41.2438 21.0135 41.3289 21.0011 41.4179L21.9916 41.556ZM21.7911 43.7927C21.7657 43.2802 21.8972 42.2689 21.992 41.5526L21.0007 41.4213C20.912 42.0909 20.7613 43.2155 20.7924 43.8422L21.7911 43.7927ZM21.5166 42.8263C21.219 43.2317 21.1039 43.3475 21.0363 43.3876L21.5472 44.2473C21.823 44.0834 22.056 43.7814 22.3227 43.418L21.5166 42.8263ZM21.5213 42.8199L21.5179 42.8244L22.3214 43.4198L22.3248 43.4153L21.5213 42.8199ZM24.3914 41.0795C22.7892 41.0795 21.9955 42.1803 21.5214 42.8198L22.3247 43.4154C22.8142 42.7552 23.3376 42.0795 24.3914 42.0795V41.0795ZM27.2589 42.8197C26.785 42.1805 25.9914 41.0795 24.3914 41.0795V42.0795C25.4426 42.0795 25.966 42.7548 26.4556 43.4153L27.2589 42.8197ZM27.2623 42.8243L27.2589 42.8197L26.4557 43.4154L26.4591 43.42L27.2623 42.8243ZM27.8226 43.4005C27.7801 43.4005 27.7649 43.3955 27.7603 43.3938C27.7559 43.3923 27.7392 43.3861 27.704 43.3568C27.6165 43.2838 27.4949 43.1397 27.2631 42.8253L26.4583 43.4189C26.678 43.7168 26.8681 43.9619 27.0639 44.125C27.2987 44.3207 27.5406 44.4005 27.8226 44.4005V43.4005ZM28.3828 42.8244C28.1492 43.1394 28.0277 43.2838 27.9398 43.3571C27.9047 43.3865 27.8882 43.3925 27.8842 43.394C27.8799 43.3955 27.8651 43.4005 27.8226 43.4005V44.4005C28.1049 44.4005 28.3463 44.3204 28.5807 44.1247C28.7757 43.9619 28.9658 43.7171 29.1861 43.4199L28.3828 42.8244ZM28.3861 42.8199L28.3827 42.8244L29.1862 43.4198L29.1895 43.4153L28.3861 42.8199ZM31.2561 41.0795C29.654 41.0795 28.8603 42.1803 28.3862 42.8198L29.1895 43.4154C29.6789 42.7552 30.2024 42.0795 31.2561 42.0795V41.0795ZM34.1237 42.8197C33.6498 42.1805 32.8561 41.0795 31.2561 41.0795V42.0795C32.3074 42.0795 32.8307 42.7548 33.3204 43.4153L34.1237 42.8197ZM34.1271 42.8243L34.1237 42.8197L33.3205 43.4154L33.3239 43.42L34.1271 42.8243ZM34.6873 43.4005C34.6458 43.4005 34.6312 43.3956 34.627 43.3941C34.6228 43.3926 34.606 43.3863 34.5706 43.3568C34.4825 43.2834 34.3602 43.1387 34.1271 42.8243L33.3238 43.4199C33.5446 43.7178 33.7351 43.9623 33.9304 44.125C34.1645 44.3201 34.4056 44.4005 34.6873 44.4005V43.4005ZM35.2475 42.8244C35.014 43.1394 34.8924 43.2838 34.8046 43.3571C34.7695 43.3865 34.753 43.3925 34.7489 43.394C34.7447 43.3955 34.7298 43.4005 34.6873 43.4005V44.4005C34.9697 44.4005 35.2111 44.3204 35.4455 44.1247C35.6405 43.9619 35.8305 43.7171 36.0509 43.4199L35.2475 42.8244ZM38.1185 41.0795C36.5125 41.0795 35.719 42.1854 35.2469 42.8253L36.0516 43.419C36.539 42.7583 37.0624 42.0795 38.1185 42.0795V41.0795ZM40.9861 42.8197C40.5122 42.1805 39.7186 41.0795 38.1185 41.0795V42.0795C39.1698 42.0795 39.6932 42.7548 40.1828 43.4153L40.9861 42.8197ZM40.9897 42.8245L40.9863 42.8199L40.1827 43.4151L40.1861 43.4197L40.9897 42.8245ZM41.5521 43.4029C41.5096 43.4029 41.4945 43.3979 41.4899 43.3963C41.4855 43.3947 41.4687 43.3885 41.4334 43.359C41.3454 43.2856 41.2232 43.1408 40.9901 42.8251L40.1857 43.4191C40.4065 43.7182 40.5971 43.9637 40.793 44.1271C41.028 44.323 41.2699 44.4029 41.5521 44.4029V43.4029ZM42.1123 42.8268C41.8788 43.1418 41.7572 43.2862 41.6694 43.3595C41.6342 43.3889 41.6178 43.395 41.6137 43.3964C41.6095 43.3979 41.5946 43.4029 41.5521 43.4029V44.4029C41.8345 44.4029 42.0759 44.3229 42.3103 44.1272C42.5053 43.9644 42.6953 43.7196 42.9157 43.4223L42.1123 42.8268ZM42.1157 42.8222L42.1123 42.8268L42.9156 43.4223L42.919 43.4178L42.1157 42.8222ZM44.9857 41.0819C43.3835 41.0819 42.5899 42.1827 42.1157 42.8222L42.919 43.4178C43.4085 42.7576 43.9319 42.0819 44.9857 42.0819V41.0819ZM47.8533 42.8222C47.3793 42.1829 46.5857 41.0819 44.9857 41.0819V42.0819C46.0369 42.0819 46.5603 42.7573 47.0499 43.4177L47.8533 42.8222ZM47.8566 42.8267L47.8532 42.8221L47.05 43.4178L47.0534 43.4224L47.8566 42.8267ZM48.4169 43.4029C48.3744 43.4029 48.3592 43.3979 48.3546 43.3963C48.3502 43.3947 48.3335 43.3885 48.2983 43.3592C48.2108 43.2863 48.0892 43.1421 47.8574 42.8278L47.0526 43.4213C47.2723 43.7192 47.4624 43.9643 47.6582 44.1275C47.893 44.3231 48.1349 44.4029 48.4169 44.4029V43.4029ZM48.9789 42.8251C48.7458 43.1407 48.6236 43.2856 48.5356 43.359C48.5003 43.3885 48.4835 43.3947 48.479 43.3963C48.4745 43.3979 48.4594 43.4029 48.4169 43.4029V44.4029C48.6991 44.4029 48.941 44.323 49.1759 44.1271C49.3719 43.9637 49.5625 43.7182 49.7833 43.4191L48.9789 42.8251ZM51.8504 41.0795C50.2469 41.0795 49.4511 42.1851 48.9788 42.8253L49.7834 43.419C50.2706 42.7586 50.7965 42.0795 51.8504 42.0795V41.0795ZM54.7204 42.8198C54.2462 42.1802 53.4526 41.0795 51.8504 41.0795V42.0795C52.9042 42.0795 53.4276 42.7551 53.9171 43.4153L54.7204 42.8198ZM54.7237 42.8243L54.7203 42.8197L53.9171 43.4154L53.9205 43.42L54.7237 42.8243ZM55.284 43.4005C55.2425 43.4005 55.2279 43.3956 55.2237 43.3941C55.2194 43.3926 55.2027 43.3863 55.1672 43.3568C55.0792 43.2834 54.9569 43.1387 54.7238 42.8243L53.9205 43.4199C54.1413 43.7178 54.3318 43.9623 54.5271 44.125C54.7612 44.3201 55.0022 44.4005 55.284 44.4005V43.4005ZM55.4274 43.8839C55.2255 43.4265 55.2257 43.4264 55.2259 43.4263C55.226 43.4263 55.2263 43.4262 55.2264 43.4261C55.2267 43.426 55.227 43.4258 55.2273 43.4257C55.2279 43.4254 55.2286 43.4252 55.2292 43.4249C55.2304 43.4244 55.2316 43.4239 55.2328 43.4233C55.2352 43.4223 55.2375 43.4214 55.2398 43.4204C55.2444 43.4186 55.2488 43.4169 55.2531 43.4153C55.2615 43.4122 55.2692 43.4097 55.276 43.4077C55.2895 43.4036 55.2995 43.4015 55.3052 43.4004C55.3163 43.3984 55.311 43.4005 55.284 43.4005V44.4005C55.3628 44.4005 55.4292 44.3943 55.4856 44.384C55.514 44.3788 55.54 44.3725 55.5639 44.3653C55.5758 44.3617 55.5872 44.3579 55.5982 44.3539C55.6036 44.3519 55.609 44.3498 55.6142 44.3477C55.6168 44.3467 55.6193 44.3456 55.6219 44.3445C55.6232 44.344 55.6244 44.3435 55.6257 44.3429C55.6263 44.3427 55.6269 44.3424 55.6275 44.3421C55.6279 44.342 55.6282 44.3418 55.6285 44.3417C55.6286 44.3416 55.6289 44.3415 55.6289 44.3415C55.6292 44.3414 55.6294 44.3413 55.4274 43.8839ZM55.1215 43.2717C55.0961 43.3536 55.0666 43.4485 55.0387 43.5284C55.0246 43.5687 55.0134 43.5981 55.0056 43.6164C55.0017 43.6256 55.0009 43.6266 55.0032 43.6222C55.0045 43.6198 55.008 43.6133 55.0138 43.6042C55.0191 43.5959 55.0302 43.5791 55.0476 43.5588L55.8073 44.209C55.8746 44.1303 55.9136 44.0366 55.9254 44.0089C55.946 43.9605 55.9657 43.9071 55.9829 43.8578C56.0175 43.7585 56.0522 43.6467 56.0765 43.5682L55.1215 43.2717Z" fill="#222532"/>
<path d="M6.28832 30.1358C6.16838 29.991 5.07719 28.7308 3.68028 28.7308C3.03356 28.7308 2.10931 28.999 1.38265 30.2735L0.571278 31.6974H7.59107L6.28832 30.1358Z" fill="white" stroke="#222532"/>
<path fill-rule="evenodd" clip-rule="evenodd" d="M4.46383 33.5745L5.43041 33.6766L5.30816 34.6496C4.95301 37.2791 2.20621 40.0535 2.08862 40.1721L0.816331 41.4442L0.501199 39.6643C0.127271 37.5711 0.393012 35.962 1.28903 34.8822C2.54248 33.3704 4.46383 33.5745 4.46383 33.5745ZM2.73532 36.0997C2.56834 36.299 2.4437 36.553 2.35669 36.852L2.35669 36.852C2.55659 36.5506 2.74943 36.235 2.91405 35.9169C2.8529 35.9715 2.79176 36.0309 2.73532 36.0997Z" fill="white"/>
<path d="M5.43041 33.6766L5.92651 33.7389L5.99008 33.2329L5.48291 33.1793L5.43041 33.6766ZM4.46383 33.5745L4.41101 34.0717L4.41133 34.0718L4.46383 33.5745ZM5.30816 34.6496L5.80368 34.7165L5.80426 34.7119L5.30816 34.6496ZM2.08862 40.1721L2.44215 40.5257L2.44378 40.5241L2.08862 40.1721ZM0.816331 41.4442L0.323988 41.5314L0.491276 42.4763L1.16986 41.7978L0.816331 41.4442ZM0.501199 39.6643L0.993542 39.5771L0.993407 39.5763L0.501199 39.6643ZM1.28903 34.8822L1.67381 35.2015L1.67393 35.2013L1.28903 34.8822ZM2.35669 36.852L1.8766 36.7123L1.8225 36.8982L1.90773 37.0721L2.35669 36.852ZM2.73532 36.0997L3.11865 36.4207L3.12193 36.4167L2.73532 36.0997ZM2.35669 36.852L1.90773 37.0721L2.2915 37.855L2.77338 37.1284L2.35669 36.852ZM2.91405 35.9169L3.35809 36.1468L2.5811 35.5439L2.91405 35.9169ZM5.48291 33.1793L4.51633 33.0773L4.41133 34.0718L5.37791 34.1738L5.48291 33.1793ZM5.80426 34.7119L5.92651 33.7389L4.93431 33.6143L4.81206 34.5873L5.80426 34.7119ZM2.44378 40.5241C2.51086 40.4564 3.24752 39.712 4.01524 38.6444C4.77354 37.5899 5.60917 36.1565 5.80366 34.7165L4.81266 34.5827C4.652 35.7722 3.93665 37.0408 3.20337 38.0605C2.47951 39.0671 1.78397 39.7692 1.73346 39.8202L2.44378 40.5241ZM1.16986 41.7978L2.44215 40.5257L1.7351 39.8185L0.462805 41.0906L1.16986 41.7978ZM0.00885539 39.7514L0.323988 41.5314L1.30867 41.357L0.993542 39.5771L0.00885539 39.7514ZM0.90425 34.5629C-0.125586 35.8039 -0.37738 37.5893 0.00899059 39.7522L0.993407 39.5763C0.631922 37.5528 0.91161 36.12 1.67381 35.2015L0.90425 34.5629ZM4.46383 33.5745C4.51665 33.0773 4.51643 33.0773 4.51621 33.0773C4.51613 33.0773 4.5159 33.0773 4.51574 33.0772C4.5154 33.0772 4.51504 33.0772 4.51464 33.0771C4.51386 33.077 4.51295 33.0769 4.51192 33.0768C4.50987 33.0766 4.50735 33.0764 4.50437 33.0761C4.4984 33.0756 4.49057 33.0749 4.48098 33.0741C4.46179 33.0726 4.43548 33.0709 4.4027 33.0693C4.33719 33.0662 4.24548 33.0639 4.13281 33.0664C3.90811 33.0714 3.5963 33.0958 3.24066 33.1728C2.53009 33.3266 1.62261 33.6965 0.904127 34.563L1.67393 35.2013C2.2089 34.5561 2.88882 34.2721 3.45229 34.1501C3.73367 34.0892 3.98053 34.0701 4.15526 34.0661C4.24231 34.0642 4.31049 34.066 4.35495 34.0681C4.37715 34.0692 4.39335 34.0703 4.40292 34.0711C4.4077 34.0715 4.41082 34.0717 4.4122 34.0719C4.41289 34.0719 4.41314 34.072 4.41294 34.0719C4.41285 34.0719 4.41264 34.0719 4.41232 34.0719C4.41216 34.0719 4.41197 34.0718 4.41175 34.0718C4.41164 34.0718 4.41146 34.0718 4.4114 34.0718C4.41121 34.0718 4.41101 34.0717 4.46383 33.5745ZM2.83678 36.9917C2.90979 36.7408 3.00696 36.5541 3.11863 36.4207L2.352 35.7786C2.12972 36.044 1.97762 36.3652 1.8766 36.7123L2.83678 36.9917ZM2.80565 36.6319L2.80565 36.6319L1.90773 37.0721L1.90773 37.0721L2.80565 36.6319ZM2.47002 35.6871C2.31611 35.9844 2.1334 36.2841 1.94001 36.5757L2.77338 37.1284C2.97978 36.8172 3.18275 36.4855 3.35809 36.1468L2.47002 35.6871ZM3.12193 36.4167C3.15575 36.3755 3.19614 36.3354 3.24701 36.29L2.5811 35.5439C2.50966 35.6077 2.42776 35.6862 2.3487 35.7826L3.12193 36.4167Z" fill="#222532"/>
<path fill-rule="evenodd" clip-rule="evenodd" d="M11.7066 28.2913C11.7066 29.2833 10.9046 30.0902 9.92163 30.0902C8.93862 30.0902 8.13905 29.2833 8.13905 28.2913C8.13905 27.2993 8.93862 26.4924 9.92163 26.4924C10.907 26.4924 11.7066 27.2993 11.7066 28.2913ZM10.0204 28.2913C10.0204 28.2367 9.97572 28.1916 9.92163 28.1916C9.86754 28.1916 9.82521 28.2367 9.82521 28.2913C9.82521 28.4005 10.0204 28.4005 10.0204 28.2913Z" fill="white"/>
<path d="M9.92163 30.5902C11.1842 30.5902 12.2066 29.556 12.2066 28.2913H11.2066C11.2066 29.0106 10.6251 29.5902 9.92163 29.5902V30.5902ZM7.63905 28.2913C7.63905 29.5552 8.65819 30.5902 9.92163 30.5902V29.5902C9.21905 29.5902 8.63905 29.0115 8.63905 28.2913H7.63905ZM9.92163 25.9924C8.65819 25.9924 7.63905 27.0275 7.63905 28.2913H8.63905C8.63905 27.5712 9.21905 26.9924 9.92163 26.9924V25.9924ZM12.2066 28.2913C12.2066 27.0271 11.187 25.9924 9.92163 25.9924V26.9924C10.627 26.9924 11.2066 27.5716 11.2066 28.2913H12.2066ZM9.92163 28.6916C9.69529 28.6916 9.5204 28.5086 9.5204 28.2913H10.5204C10.5204 27.9649 10.2562 27.6916 9.92163 27.6916V28.6916ZM10.3252 28.2913C10.3252 28.4927 10.1635 28.6916 9.92163 28.6916V27.6916C9.57163 27.6916 9.32521 27.9808 9.32521 28.2913H10.3252ZM9.5204 28.2913C9.5204 28.1492 9.59227 28.0255 9.691 27.9519C9.77543 27.8889 9.86189 27.8732 9.92281 27.8732C9.98372 27.8732 10.0702 27.8889 10.1546 27.9519C10.2533 28.0255 10.3252 28.1492 10.3252 28.2913H9.32521C9.32521 28.488 9.42148 28.6526 9.55681 28.7535C9.67783 28.8438 9.81309 28.8732 9.92281 28.8732C10.0325 28.8732 10.1678 28.8438 10.2888 28.7535C10.4241 28.6526 10.5204 28.488 10.5204 28.2913H9.5204Z" fill="#222532"/>
</svg>
